<svg xmlns="http://www.w3.org/2000/svg" height="40" viewBox="0 -960 960 960" width="40"><path d="M546.666-579.999q-14.166 0-23.75-9.584-9.583-9.583-9.583-23.75v-193.334q0-14.166 9.583-23.75Q532.5-840 546.666-840h260.001q14.166 0 23.75 9.583 9.583 9.584 9.583 23.75v193.334q0 14.167-9.583 23.75-9.584 9.584-23.75 9.584H546.666ZM153.333-446.667q-14.166 0-23.75-9.583Q120-465.833 120-480v-326.667q0-14.166 9.583-23.75 9.584-9.583 23.75-9.583h260.001q14.166 0 23.75 9.583 9.583 9.584 9.583 23.75V-480q0 14.167-9.583 23.75-9.584 9.583-23.75 9.583H153.333ZM546.666-120q-14.166 0-23.75-9.583-9.583-9.584-9.583-23.75V-480q0-14.167 9.583-23.75 9.584-9.583 23.75-9.583h260.001q14.166 0 23.75 9.583Q840-494.167 840-480v326.667q0 14.166-9.583 23.75-9.584 9.583-23.75 9.583H546.666Zm-393.333 0q-14.166 0-23.75-9.583-9.583-9.584-9.583-23.75v-193.334q0-14.167 9.583-23.75 9.584-9.584 23.75-9.584h260.001q14.166 0 23.75 9.584 9.583 9.583 9.583 23.75v193.334q0 14.166-9.583 23.75Q427.5-120 413.334-120H153.333Z"/></svg>