<svg xmlns="http://www.w3.org/2000/svg" height="40" viewBox="0 -960 960 960" width="40"><path d="M160-186.666v-380.001q0-15.833 7.083-30 7.084-14.166 19.584-23.333L440-810q17.453-13.333 39.893-13.333T520-810l253.333 190q12.5 9.167 19.584 23.333 7.083 14.167 7.083 30v380.001q0 27.5-19.583 47.083T733.334-120H593.333q-14.166 0-23.75-9.583-9.583-9.584-9.583-23.75v-213.334q0-14.166-9.583-23.75-9.584-9.583-23.75-9.583h-93.334q-14.166 0-23.75 9.583-9.583 9.584-9.583 23.75v213.334q0 14.166-9.583 23.75-9.584 9.583-23.75 9.583H226.666q-27.5 0-47.083-19.583T160-186.666Z"/></svg>