<svg xmlns="http://www.w3.org/2000/svg" height="40" viewBox="0 -960 960 960" width="40"><path d="M360-160H186.666q-27 0-46.833-20.167Q120-200.333 120-226.666v-586.668q0-27 19.833-46.833T186.666-880h586.668q26.333 0 46.499 19.833Q840-840.334 840-813.334v586.668q0 26.333-20.167 46.499Q799.667-160 773.334-160H600l-96.667 96.667q-10 10-23.333 10-13.333 0-23.333-10L360-160Zm122.667-123.333q17.666 0 29.833-12.167 12.167-12.167 12.167-29.833 0-17.667-12.167-29.833-12.167-12.167-29.833-12.167-17.667 0-29.833 12.167-12.167 12.166-12.167 29.833 0 17.666 12.167 29.833 12.166 12.167 29.833 12.167Zm70.667-355.334q0 19-11 37.834-11 18.833-37 43.166-17.667 16.334-28.167 29.5-10.5 13.167-16.833 26.5-4 8-6 17t-4 19.667q-2 12.333 7 22 8.999 9.667 22.333 9.667 12 0 21.333-8.667 9.333-8.667 12.667-23 3.666-16 12.833-29.667 9.167-13.666 28.833-33.333Q589-561.667 602.5-586.667T616-640q0-53.333-34.833-85-34.834-31.667-94.5-31.667-43.667 0-76.667 18.334-33 18.333-53 51-6.333 10.666-1.167 21.666 5.167 11 17.167 16 11.667 5 23 1t19.333-13.666q13-16 31-24.834 18-8.833 40.334-8.833 30 0 48.333 15.5 18.334 15.5 18.334 41.833Z"/></svg>