<svg xmlns="http://www.w3.org/2000/svg" height="40" viewBox="0 -960 960 960" width="40"><path d="M226.666-80q-27 0-46.833-19.833T160-146.666v-666.668q0-27 19.833-46.833T226.666-880h319.668q13.333 0 25.833 5.333 12.5 5.334 21.5 14.334l186.666 186.666q9 9 14.334 21.5 5.333 12.5 5.333 25.833v479.668q0 27-19.833 46.833T733.334-80H226.666Zm314.001-576q0 14.333 9.5 23.833 9.5 9.5 23.833 9.5h159.334L540.667-813.334V-656ZM435-340.333 360.333-415q-4.667-4.667-10.334-7-5.666-2.333-11.499-2.333-5.834 0-11.667 2.666-5.833 2.667-10.5 7.334Q307-405 307-391.834q0 13.167 9.333 22.5L412-273.333q5.333 5.333 11 7.499 5.667 2.167 12.333 2.167 6.667 0 12.334-2.167 5.666-2.166 10.999-7.499L641-455.667q9.333-9.333 9.333-22.667 0-13.333-9.333-22.666t-22.666-9.333q-13.334 0-22.667 9.333L435-340.333Z"/></svg>